<?xml version="1.0" encoding="utf-8"?>
<!-- Generator: Adobe Illustrator 28.0.0, SVG Export Plug-In . SVG Version: 6.00 Build 0)  -->
<svg version="1.1" id="katman_1" xmlns="http://www.w3.org/2000/svg" xmlns:xlink="http://www.w3.org/1999/xlink" x="0px" y="0px"
	 viewBox="0 0 50 50" style="enable-background:new 0 0 50 50;" xml:space="preserve">
<style type="text/css">
	.st0{fill:#1e2b4f;}
</style>
<g>
	<g>
		<path class="st0" d="M25,45.61c-2.78,0-5.48-0.54-8.02-1.62c-2.45-1.04-4.66-2.52-6.55-4.42c-1.89-1.89-3.38-4.1-4.42-6.55
			C4.94,30.48,4.39,27.78,4.39,25c0-2.78,0.54-5.48,1.62-8.02c1.04-2.45,2.52-4.66,4.42-6.55c1.89-1.89,4.1-3.38,6.55-4.42
			c2.54-1.07,5.24-1.62,8.02-1.62s5.48,0.54,8.02,1.62c2.45,1.04,4.66,2.52,6.55,4.42c1.89,1.89,3.38,4.1,4.42,6.55
			c1.07,2.54,1.62,5.24,1.62,8.02c0,2.78-0.54,5.48-1.62,8.02c-1.04,2.45-2.52,4.66-4.42,6.55c-1.89,1.89-4.1,3.38-6.55,4.42
			C30.48,45.06,27.78,45.61,25,45.61z M25,4.83c-2.72,0-5.36,0.53-7.85,1.59c-2.4,1.02-4.56,2.47-6.41,4.32s-3.31,4.01-4.32,6.41
			C5.36,19.64,4.83,22.28,4.83,25s0.53,5.36,1.59,7.85c1.02,2.4,2.47,4.56,4.32,6.41c1.85,1.85,4.01,3.31,6.41,4.32
			c2.49,1.05,5.13,1.59,7.85,1.59c2.72,0,5.36-0.53,7.85-1.59c2.4-1.02,4.56-2.47,6.41-4.32c1.85-1.85,3.31-4.01,4.32-6.41
			c1.05-2.49,1.59-5.13,1.59-7.85s-0.53-5.36-1.59-7.85c-1.02-2.4-2.47-4.56-4.32-6.41c-1.85-1.85-4.01-3.31-6.41-4.32
			C30.36,5.36,27.72,4.83,25,4.83z"/>
	</g>
	<g>
		<path class="st0" d="M25,50c-3.37,0-6.65-0.66-9.73-1.96c-2.98-1.26-5.65-3.06-7.95-5.36c-2.3-2.3-4.1-4.97-5.36-7.95
			C0.66,31.65,0,28.37,0,25s0.66-6.65,1.96-9.73c1.26-2.98,3.06-5.65,5.36-7.95c2.3-2.3,4.97-4.1,7.95-5.36C18.35,0.66,21.63,0,25,0
			s6.65,0.66,9.73,1.96c2.98,1.26,5.65,3.06,7.95,5.36c2.3,2.3,4.1,4.97,5.36,7.95C49.34,18.35,50,21.63,50,25s-0.66,6.65-1.96,9.73
			c-1.26,2.98-3.06,5.65-5.36,7.95c-2.3,2.3-4.97,4.1-7.95,5.36C31.65,49.34,28.37,50,25,50z M25,0.15c-3.36,0-6.61,0.66-9.67,1.95
			c-2.96,1.25-5.62,3.04-7.9,5.33c-2.28,2.28-4.07,4.94-5.33,7.9C0.8,18.39,0.15,21.64,0.15,25s0.66,6.61,1.95,9.67
			c1.25,2.96,3.04,5.62,5.33,7.9c2.28,2.28,4.94,4.07,7.9,5.33c3.06,1.3,6.32,1.95,9.67,1.95s6.61-0.66,9.67-1.95
			c2.96-1.25,5.62-3.04,7.9-5.33c2.28-2.28,4.07-4.94,5.33-7.9c1.3-3.06,1.95-6.32,1.95-9.67s-0.66-6.61-1.95-9.67
			c-1.25-2.96-3.04-5.62-5.33-7.9c-2.28-2.28-4.94-4.07-7.9-5.33C31.61,0.8,28.36,0.15,25,0.15z"/>
	</g>
	<g>
		<g>
			<path class="st0" d="M36.17,13.83c-2.97-2.97-6.92-4.61-11.11-4.63c-4.11-0.01-8.08,1.58-11.04,4.44
				c-3.11,3.01-4.83,7.07-4.82,11.4c0.01,4.2,1.7,8.23,4.69,11.19c1.53,1.51,3.3,2.67,5.24,3.44c0.55,0.22,1.17-0.07,1.35-0.64l0,0
				c0.16-0.51-0.1-1.06-0.59-1.26c-1.74-0.7-3.34-1.76-4.7-3.14c-2.56-2.6-3.98-6.13-3.94-9.78c0.04-3.65,1.48-7.07,4.08-9.64
				c2.61-2.58,6.15-4.02,9.82-3.98c3.64,0.04,7.05,1.47,9.62,4.06c2.57,2.58,4,6.06,4,9.7c0,3.67-1.43,7.13-4.03,9.73
				c-1.34,1.34-2.91,2.37-4.61,3.05c-0.5,0.2-0.76,0.75-0.59,1.26v0c0.18,0.56,0.8,0.85,1.35,0.64c2-0.8,3.83-2.01,5.39-3.6
				c2.93-2.98,4.55-6.98,4.53-11.16C40.78,20.73,39.13,16.8,36.17,13.83z"/>
		</g>
	</g>
	<g>
		<path class="st0" d="M31.5,25.28l-5.79-5.79c-0.01-0.01-0.02-0.02-0.03-0.03l0,0l0,0c-0.19-0.18-0.45-0.29-0.73-0.29
			c-0.29,0-0.54,0.11-0.74,0.29l0,0l-0.01,0.01c0,0,0,0-0.01,0.01l-5.8,5.8c-0.42,0.42-0.42,1.09,0,1.51l0,0
			c0.42,0.42,1.09,0.42,1.51,0l3.99-3.99v18.49c0,0.59,0.48,1.06,1.06,1.06c0.59,0,1.06-0.48,1.06-1.06V22.8L30,26.79
			c0.42,0.42,1.09,0.42,1.51,0l0,0C31.92,26.37,31.92,25.7,31.5,25.28z"/>
	</g>
</g>
</svg>
